<svg viewBox="0 0 64 64" xmlns="http://www.w3.org/2000/svg" xmlns:xlink="http://www.w3.org/1999/xlink"><linearGradient id="a" gradientUnits="userSpaceOnUse" x1="30" x2="34" y1="44.96" y2="44.96"><stop offset="0" stop-color="#d3e6f5"/><stop offset="1" stop-color="#f0f7fc"/></linearGradient><path d="m60 12v28h-56v-28a6 6 0 0 1 4-5.65 5.8 5.8 0 0 1 2-.35h44a6 6 0 0 1 6 6z" fill="#ccd3eb"/><path d="m57 12v28h-53v-28a6 6 0 0 1 4-5.65 5.8 5.8 0 0 1 2-.35h41a6 6 0 0 1 6 6z" fill="#f5f7ff"/><path d="m60 40v4a6 6 0 0 1 -6 6h-44a6 6 0 0 1 -6-6v-4z" fill="#96a1c3"/><path d="m42.29 61.95h-20.58l4.12-12h12.34z" fill="#647499"/><path d="m33 46h-2a1 1 0 0 1 0-2h2a1 1 0 0 1 0 2z" fill="url(#a)"/><path d="m55 4v8h-46v-8a2 2 0 0 1 2-2h42a2 2 0 0 1 2 2z" fill="#0074ff"/><path d="m55 12v21a2 2 0 0 1 -2 2h-42a2 2 0 0 1 -2-2v-21z" fill="#f5f7ff"/><path d="m49 9a2 2 0 1 1 2-2 2 2 0 0 1 -2 2z" fill="#d7e9f7"/><path d="m43 9a2 2 0 1 1 2-2 2 2 0 0 1 -2 2z" fill="#4795ea"/><path d="m37 9a2 2 0 1 1 2-2 2 2 0 0 1 -2 2z" fill="#eb7f58"/><path d="m31 8h-17a1 1 0 0 1 0-2h17a1 1 0 0 1 0 2z" fill="#4795ea"/><path d="m15 28a1 1 0 0 1 -.83-.45l-2-3a1 1 0 0 1 0-1.1l2-3a1 1 0 0 1 1.66 1.1l-1.63 2.45 1.63 2.45a1 1 0 0 1 -.28 1.38.94.94 0 0 1 -.55.17z" fill="#b4cde1"/><path d="m23 28a.94.94 0 0 1 -.55-.17 1 1 0 0 1 -.28-1.38l1.63-2.45-1.63-2.45a1 1 0 1 1 1.66-1.1l2 3a1 1 0 0 1 0 1.1l-2 3a1 1 0 0 1 -.83.45z" fill="#b4cde1"/><path d="m18 28.87a1.07 1.07 0 0 1 -.25 0 1 1 0 0 1 -.75-1.25l2-7.74a1 1 0 0 1 1.94.5l-2 7.74a1 1 0 0 1 -.94.75z" fill="#b4cde1"/><path d="m40 31h-8a2 2 0 0 1 -1.41-.59l3.68-3.68a2 2 0 0 1 3.08.3l.65.97z" fill="#f5f7ff"/><path d="m51 19v10a1.91 1.91 0 0 1 -.56 1.37l-5.9-6.63a2 2 0 0 0 -3 .05l-3.54 4.21-.65-1a2 2 0 0 0 -3.08-.3l-3.68 3.68a2 2 0 0 1 -.59-1.38v-10a2 2 0 0 1 2-2h17a2 2 0 0 1 2 2z" fill="#0074ff"/><path d="m50.44 30.37a1.93 1.93 0 0 1 -1.44.63h-9l-2-3 3.51-4.21a2 2 0 0 1 3-.05z" fill="#f5f7ff"/><path d="m36 24a2 2 0 1 1 2-2 2 2 0 0 1 -2 2z" fill="#f0f7fc"/><path d="m33 44h-2a1 1 0 0 0 0 2h2a1 1 0 0 0 0-2z" fill="#033c59"/><path d="m56 5.3v-1.3a3 3 0 0 0 -3-3h-4a1 1 0 0 0 0 2h4a1 1 0 0 1 1 1v7h-44v-7a1 1 0 0 1 1-1h29a1 1 0 0 0 0-2h-29a3 3 0 0 0 -3 3v1.3a7 7 0 0 0 -5 6.7v32a7 7 0 0 0 7 7h14.43l-3.43 10h-1a1 1 0 0 0 0 2h24a1 1 0 0 0 0-2h-1l-3.43-10h14.43a7 7 0 0 0 7-7v-32a7 7 0 0 0 -5-6.7zm-2 7.7v20a1 1 0 0 1 -1 1h-42a1 1 0 0 1 -1-1v-20zm-46-5.56v25.56a3 3 0 0 0 3 3h42a3 3 0 0 0 3-3v-25.56a4.94 4.94 0 0 1 3 4.56v27h-54v-27a4.94 4.94 0 0 1 3-4.56zm32.89 53.56h-17.78l3.43-10h10.92zm13.11-12h-44a5 5 0 0 1 -5-5v-3h54v3a5 5 0 0 1 -5 5z" fill="#033c59"/><path d="m44 3h1a1 1 0 0 0 0-2h-1a1 1 0 0 0 0 2z" fill="#033c59"/><g fill="#f5f7ff"><circle cx="49" cy="7" r="2"/><circle cx="43" cy="7" r="2"/><circle cx="37" cy="7" r="2"/><path d="m14 6a1 1 0 0 0 0 2h17a1 1 0 0 0 0-2z"/></g><path d="m14.17 27.55a1 1 0 0 0 .83.45.94.94 0 0 0 .55-.17 1 1 0 0 0 .28-1.38l-1.63-2.45 1.63-2.45a1 1 0 0 0 -1.66-1.1l-2 3a1 1 0 0 0 0 1.1z" fill="#647499"/><path d="m22.45 27.83a.94.94 0 0 0 .55.17 1 1 0 0 0 .83-.45l2-3a1 1 0 0 0 0-1.1l-2-3a1 1 0 1 0 -1.66 1.1l1.63 2.45-1.63 2.45a1 1 0 0 0 .28 1.38z" fill="#647499"/><path d="m17.75 28.84a1.07 1.07 0 0 0 .25 0 1 1 0 0 0 1-.75l2-7.74a1 1 0 0 0 -1.94-.5l-2 7.74a1 1 0 0 0 .69 1.25z" fill="#647499"/><path d="m32 32h17a3 3 0 0 0 3-3v-10a3 3 0 0 0 -3-3h-17a3 3 0 0 0 -3 3v10a3 3 0 0 0 3 3zm8.53-2-1.28-1.93 3-3.64a1 1 0 0 1 .76-.36.85.85 0 0 1 .75.34l5 5.59zm-2.4 0h-5.72l2.59-2.56a1 1 0 0 1 .81-.3 1 1 0 0 1 .73.45zm-6.13-12h17a1 1 0 0 1 1 1v9.37l-4.71-5.29a3 3 0 0 0 -2.24-1 3 3 0 0 0 -2.28 1.08l-2.67 3.2a3 3 0 0 0 -4.54-.36l-2.56 2.59v-9.59a1 1 0 0 1 1-1z" fill="#033c59"/><circle cx="36" cy="22" fill="#f5f7ff" r="2"/></svg>